<svg xmlns="http://www.w3.org/2000/svg" viewBox="0 0 828.26 188.36"><defs><style>.cls-1{fill:#202122;}.cls-2{fill:#2000bf;}.cls-3{fill:#2f863d;}.cls-4{fill:#8a0013;}.cls-5{fill:#fff;}.cls-6{fill:none;}.cls-7{fill:#000df4;}.cls-8{fill:#fdfdfd;}.cls-9{font-size:16.63px;fill:#00741a;font-family:BerlinSansFBDemi-Bold, Berlin Sans FB Demi;font-weight:700;letter-spacing:0.3em;}</style></defs><title>Asset 2</title><g id="Layer_2" data-name="Layer 2"><g id="Layer_1-2" data-name="Layer 1"><path class="cls-1" d="M48.91,167c-5.5.28-6.88-.6-8-5a2.66,2.66,0,0,1,.35-2.61c1.29-1.36.86-2.72.41-4.22-.71-2.33-1.54-4.64-1.19-7.17a3,3,0,0,1,1.66-2.54c1.31-.65,2.55-1.43,3.89-2a39.73,39.73,0,0,0,14-10.15,38,38,0,0,1,6.41-4.93c11-7.58,23.29-12.28,35.82-16.53,7.2-2.44,14.37-1.66,21.59-.26a5.23,5.23,0,0,1,.89.2c9.37,3.79,18-.26,26.8-2.5,2.34-.59,4.59-1.62,7.18-.76a3.24,3.24,0,0,0,2.93-.82c3.09-3,6.77-5.24,10.22-7.78a21.33,21.33,0,0,0,5.37-6.18c2.94-4.64,4.15-9.85,6.41-14.68a3.08,3.08,0,0,0-.23-3.34A8.61,8.61,0,0,1,186.45,64a9.22,9.22,0,0,1,12.32,3.1c2.58,4.06,1.43,8.81-2.74,11.57A9.6,9.6,0,0,1,188.76,80c-.69-.12-1.26-.47-1.62.54-1.44,4-3.6,7.92-4.29,12.07-.84,5.05-1.78,10.23-.3,15.51,1.2,4.24,1.64,8.7,2.47,13a6.23,6.23,0,0,1-2,6.22,5.58,5.58,0,0,1-6.64.88,4,4,0,0,0-4.39.16c-2.52,1.44-5.28,2.47-7.84,3.85-1.37.73-1.83.46-2.44-.92-2.61-5.8-7.18-9-13.58-8.78a14.75,14.75,0,0,0-13.68,8.91,12.53,12.53,0,0,0-.4,9.83c.5,1.4.13,1.79-1.17,2.23q-21.93,7.37-43.81,14.88c-1.81.62-2.53.45-3.23-1.49a14.16,14.16,0,0,0-15-9.4c-7.46.82-13.32,6.1-14.26,12.87a11.69,11.69,0,0,0-.11,2c.19,3.69.2,3.72-3.44,4.22C51.67,166.89,50.28,166.92,48.91,167Zm114.85-57.35a25.41,25.41,0,0,1,4.73,5,3.52,3.52,0,0,0,2.15,1.56,4.18,4.18,0,0,1,3.52,3.77,5.5,5.5,0,0,0,3.36,4.8c.94.43,1.71,1.07,2.72.32a2.41,2.41,0,0,0,.94-2.83c-.44-1.65-2.47-3.25-.22-5,.06,0,0-.29-.05-.44-.77-5-1.51-10-2.32-15-.25-1.53-1.64-2.14-2.68-1.41C171.79,103.36,167.86,106.52,163.76,109.67ZM120.56,120c-1.12-2.42-2.43-4.29-5.24-4.42a29.43,29.43,0,0,1-2.94-.46c-6.63-.88-12.41,2-18.39,4.06-1.13.38-.63,1-.32,1.55,1,2,2.17,3.86,3.12,5.86.57,1.21,1.27,1.19,2.35.8,3.23-1.19,6.49-2.3,9.74-3.41C112.76,122.63,116.65,121.32,120.56,120Zm-44,15.09L77,135c4.93-1.67,9.86-3.37,14.81-5,1.07-.36.75-.88.43-1.53-1-1.92-1.94-3.83-2.78-5.79-.55-1.26-1.23-1.23-2.34-.74a89.94,89.94,0,0,0-11.8,6.16c-.6.38-1.46.66-1.14,1.71.55,1.79.58,3.77,1.93,5.27C76.16,135.12,76.38,135.07,76.53,135.08Zm32.75-2.94c-.07-1.29-.93-1.49-1.94-1.42s-2.16.07-2.61-1.26a.92.92,0,0,0-1.14-.54c-.71.13-.77.71-.7,1.25a2.19,2.19,0,0,1-1.26,2.38,4,4,0,0,0-1.83,4.57c.5,1.89,2.12,2.49,3.88,2.7.68.08,1.39,0,2.07,0,1.59.17,1.66,1.6,1.63,2.59s-1.2.77-1.86.53a1.76,1.76,0,0,0-2.46,1.35c-.43,1.36.91,1.5,1.81,1.85,1.45.55,3.22-.2,4.53,1.33.46.54,1.68,0,1.71-1.13a2.29,2.29,0,0,1,.87-2,3.87,3.87,0,0,0,.56-5.66c-1-1.23-2.16-2.26-3.89-2.06s-2.2-1.07-2.42-2.19c-.32-1.73,1.09-.52,1.67-.75A1.92,1.92,0,0,0,109.28,132.14Zm-38.2-1.29A15.72,15.72,0,0,0,65.92,135a1.59,1.59,0,0,0-.13,2.24,1.72,1.72,0,0,0,2.15.72c4.35-1.09,4.36-1.06,3.52-5.36C71.36,132.1,71.24,131.59,71.08,130.85Zm60.74-15.92c-3.39-1.61-10.94-2.89-13.95-2.41C121.72,115.43,129.25,116.81,131.82,114.93Zm59.44-40.6a2.78,2.78,0,0,0,2.62-2.75,2.85,2.85,0,0,0-2.95-2.84,2.71,2.71,0,0,0-2.78,2.76A2.82,2.82,0,0,0,191.26,74.33Z"/><path class="cls-1" d="M199.53,146.58h25.71c8.53,0,17.06,0,25.58,0,1.55,0,2.07-.29,2.07-2-.08-16.75-.06-33.5-.08-50.24,0-3.8,1.28-5.19,5-5.21,6.6,0,13.21,0,19.82,0a10.36,10.36,0,0,1,9.11,4.8c5.18,7.39,10.54,14.67,15.79,22a12,12,0,0,0,3.19,2.58c2.37,1.69,4.81,3.28,7.17,5a9.34,9.34,0,0,1,4,8.11c-.05,6.5-.05,13-.07,19.49,0,.91-.11,1.8.73,2.53,1.59,1.39,1.27,3.21.72,4.88s-2,2.41-3.76,2.57c-.3,0-.61,0-.92,0-1.46,0-3.17.43-4.31-.18-1.32-.72-.54-2.65-.78-4-1.61-9.23-10.61-16.47-20-16-10.12.53-18.38,8.48-18.86,18.26-.07,1.49-.47,1.91-2,1.91-20.12,0-40.25,0-60.38,0-.72,0-1.91.48-1.9-.92C205.44,155,203.25,150.77,199.53,146.58Zm64.06-41.53h.47c0,2.14,0,4.28,0,6.42a2.39,2.39,0,0,0,2.18,2.72c9,1.79,18,3.62,27.06,5.41.69.13,1.66.56,2.1-.22s-.27-1.44-.71-2c-4.53-6.26-9.09-12.5-13.61-18.77a4.21,4.21,0,0,0-3.71-1.88c-4,0-8,.07-12,0-1.45,0-1.86.6-1.81,1.94C263.65,100.78,263.59,102.92,263.59,105.05Z"/><path class="cls-2" d="M185.93,59.5c-3,1.55-5.14,3.11-6.49,5.53a1,1,0,0,1-1.11.6c-2.11-.55-4.4-.33-6.35-1.53-1.39-.85-2.77-1.17-4.22,0s-2.91.93-4.54.3c-2.54-1-5.27-1.42-7.62-2.91a2.47,2.47,0,0,0-2,0,6.07,6.07,0,0,1-6.73-2.36c-1.23-1.61-2.41-2.55-4.62-2-1.94.5-3.75-.69-5.56-1.21-3.3-1-6.93-1.14-9.5-4.14-1.16-1.34-3.33-1.33-5.21-1.33-4.5,0-9.06-4.56-9-9,0-10.48,0-21,.06-31.43,0-1.94-.56-2.35-2.43-2.34-13.13.08-26.27.12-39.4,0-2.47,0-2.81.76-2.8,2.92q.09,40.49,0,81c0,4-1.14,5.17-5.17,5.16H17.58c-1.74,0-3.48,0-4.45,0,3.88,4.16,8,8.67,12.19,13a90,90,0,0,0,8.84,8.05,5.39,5.39,0,0,1,2,2.45c1.21,3.88,3.32,7.51,3.13,11.79a9.88,9.88,0,0,0,3,7.86c.89.86.75,1.25-.31,1.76a8.25,8.25,0,0,0-5,5.79,23.89,23.89,0,0,1-4.84-14.67,6.34,6.34,0,0,0-.91-3.65,7,7,0,0,1-1.42-4.28,2.28,2.28,0,0,0-1.16-2.07c-9.46-7.59-17.82-16.38-26.86-24.44-2.05-1.83-2.05-4-1.65-6.27a3.12,3.12,0,0,1,3.25-2.85c.84,0,1.68-.06,2.53-.06,17.28,0,34.56-.11,51.85,0,2.49,0,2.79-.82,2.78-3q-.1-39.12,0-78.22c0-1.3,0-2.61,0-3.9.14-2.71,1.2-3.81,3.87-4C65.69,0,66.92,0,68.15,0h47c4.23,0,5.39,1.09,5.4,5.24,0,11.55,0,23.09,0,34.64,0,2.55,1,3.62,3.61,3.45,3.25-.22,5.79.57,7.66,3.5,1,1.62,3.28,1.37,5,1.82,2.86.76,5.71,1.6,8.77,1.46,2.12-.1,3.36,1.66,4.72,3,1,1,2,1.76,3.61,1.15a3.64,3.64,0,0,1,3.14.21c2.45,1.6,5.32,1.67,8,2.47.28.09.71.29.84.18,2.56-2.17,5.12-.91,7.56.12a17.46,17.46,0,0,0,6,1.14A57.62,57.62,0,0,1,185.93,59.5Z"/><path class="cls-3" d="M109.52,177.57l-69.94,1.36a64,64,0,0,1,12.93-2.79c5.61-.77,11.22-1.63,16.89-2a7.15,7.15,0,0,0,1.31-.37c1.64.28,3.21-.38,4.83-.42q21.31-1.76,42.71-2.13c19-.36,38.05-.51,57.07.29,4.09,3.15,8.52,4.86,13.82,3.7,2.54-.56,4.51-2.13,6.71-3.28q32.43,0,64.83,1.38c7.28.32,14.55.63,21.8,1.28.18,0,.38-.16.58-.25a21.65,21.65,0,0,0,9.82.87c4.27.88,8.65.76,13,1.35,4.76.64,9.53,1.23,14.75,1.91a4.35,4.35,0,0,1-2.82.49q-62.5-.06-125,.4c-5.52,0-11,0-16.57,0-.39-.46-.94-.41-1.47-.45L165.2,178c-15.53-.25-31.07-.63-46.61-.47Z"/><path class="cls-4" d="M226,134.85c-2.4-10.32-5.06-20.58-7.9-30.79a5.14,5.14,0,0,0-1.54-2.21c-6.33-6.55-12.64-13.12-19-19.61-1.19-1.21-1.33-1.76.24-2.81,2.53-1.7,3.82-4.27,3.85-7.78,2.41,1.86,4.54,3.56,6.73,5.18,7.81,5.75,15.3,11.94,23.39,17.33a6.56,6.56,0,0,1,3.12,6.28c-.28,11.45-.09,22.91-.08,34.37A17.8,17.8,0,0,1,226,134.85Zm5.78-22.11c-.54.09-1.57-.25-1.53.74.06,1.61,1.58,1,2.49,1.3.6.22,1.07.17,1-.63C233.73,112.9,232.85,112.74,231.78,112.74Z"/><path class="cls-1" d="M211.15,142c-8.75,0-17.52.4-26.26,0-11.21-.51-18.65,9-18.68,17.64,0,1.07-.28,1.44-1.42,1.44-7.22,0-14.44.05-21.66,0-2.62,0-3.83-1.43-3.88-4.32s.75-4.18,3.56-4.12c7.79.14,13.64-4,19.54-8.24,3.11-2.22,6.3-4.33,9.54-6.35a19.83,19.83,0,0,1,10.72-3c14.13,0,28.26,0,42.39,0,0,.23.08.59,0,.66a31.58,31.58,0,0,1-12.75,4.94c-3.33.48-6.79.09-10.19.09a43.49,43.49,0,0,0,7.28.46C210,141.23,210.93,140.85,211.15,142Z"/><path class="cls-1" d="M195.85,171.91c-2.2,1.15-4.17,2.72-6.71,3.28-5.3,1.16-9.73-.55-13.82-3.7a15.54,15.54,0,0,1-4.44-7,14.67,14.67,0,0,1,.69-9.42,15.57,15.57,0,0,1,17.57-9.29,15.21,15.21,0,0,1,11.93,15.79C200.86,165.74,198.81,169.08,195.85,171.91Zm-2.21-11.47a7.61,7.61,0,0,0-7.72-7.45,7.71,7.71,0,0,0-7.88,7.58,7.8,7.8,0,0,0,15.6-.13Z"/><path class="cls-1" d="M292.88,175.19a21.65,21.65,0,0,1-9.82-.87c-4.77-2.45-8-6.09-8.87-11.5a15.23,15.23,0,0,1,29.48-7.12,14.92,14.92,0,0,1-8.23,18.49C294.6,174.56,293.73,174.86,292.88,175.19Zm-3.64-22.25a7.82,7.82,0,0,0-7.86,7.67,8,8,0,0,0,7.78,7.57,7.83,7.83,0,0,0,7.8-7.72A7.71,7.71,0,0,0,289.24,152.94Z"/><path class="cls-5" d="M115.32,64.15c-2.78,2.09-5.52,4.27-8.38,6.25a2.42,2.42,0,0,0-1.1,3.24c1.16,3.45,2.16,7,3.39,11-3.58-2.46-6.7-4.52-9.71-6.73a2.14,2.14,0,0,0-3,0c-3.09,2.24-6.27,4.35-10,6.91,1.29-4.13,2.31-7.67,3.54-11.14a2.18,2.18,0,0,0-.93-3,69.25,69.25,0,0,1-8.72-7c3.62,0,7.24-.12,10.85.05,1.88.09,2.69-.49,3.21-2.28,1-3.28,2.2-6.48,3.55-10.4,1.39,4,2.62,7.36,3.66,10.76a2.24,2.24,0,0,0,2.59,1.88c3.59-.1,7.19,0,10.79,0Z"/><path class="cls-1" d="M160,137.14A11.92,11.92,0,1,1,148.24,125,12,12,0,0,1,160,137.14Zm-6-.06a5.94,5.94,0,0,0-6.05-5.89,5.67,5.67,0,0,0-5.6,5.77,5.83,5.83,0,1,0,11.65.12Z"/><path class="cls-1" d="M75.54,173.33c-1.62,0-3.19.7-4.83.42a15.47,15.47,0,0,1-6.1-2.53c-6.53-5-6.33-13.92-.07-18.84a12,12,0,0,1,14.37-.19c4.08,2.88,6.34,9.1,4.41,13.47A13.75,13.75,0,0,1,75.54,173.33Zm-9.7-11.67a6.06,6.06,0,0,0,5.87,6.1,6,6,0,0,0,6-5.72,5.82,5.82,0,0,0-5.82-6A6,6,0,0,0,65.84,161.66Z"/><path class="cls-3" d="M240,105.88c0-5.34-.09-10.68-.11-16a5.88,5.88,0,0,0-.43-2.41c-.62-1.43,1-7.47,2.18-8.57a4.28,4.28,0,0,1,3.11-1.12c5,0,10,0,15,0a4.37,4.37,0,0,1,3.79,6.05c-.36.77-1,.59-1.57.61-2.38,0-4.76,0-7.13.14-4.24.23-6.79,2.85-6.88,7-.1,4.73-.11,9.45-.15,14.18Z"/><path class="cls-1" d="M240,105.88l7.77-.11q0,17.4.1,34.79c0,1.2-.38,1.59-1.57,1.57-6-.06-12-.07-17.93-.1.24-1.14,1.17-.77,1.86-.78,2.6-.05,5.2,0,7.81-.06.72,0,1.7.21,1.73-.94,0-1.78.46-3.64-.82-5.22,1.5-.22.9-1.39.91-2.16C239.89,123.87,239.91,114.88,240,105.88Z"/><path class="cls-3" d="M238.9,135c1.28,1.58.85,3.44.82,5.22,0,1.15-1,.93-1.73.94-2.61,0-5.21,0-7.81.06-.69,0-1.62-.36-1.86.78-5.72.24-11.45.25-17.17,0-.22-1.16-1.15-.78-1.84-.79a43.49,43.49,0,0,1-7.28-.46c3.4,0,6.86.39,10.19-.09A31.58,31.58,0,0,0,225,135.73c.11-.07,0-.43,0-.66l1-.22a17.8,17.8,0,0,0,8.79,0Z"/><path class="cls-6" d="M163.76,109.67c4.1-3.15,8-6.31,12.15-9.23,1-.73,2.43-.12,2.68,1.41.81,5,1.55,10,2.32,15,0,.15.11.39.05.44-2.25,1.78-.22,3.38.22,5a2.41,2.41,0,0,1-.94,2.83c-1,.75-1.78.11-2.72-.32a5.5,5.5,0,0,1-3.36-4.8,4.18,4.18,0,0,0-3.52-3.77,3.52,3.52,0,0,1-2.15-1.56A25.41,25.41,0,0,0,163.76,109.67Z"/><path class="cls-6" d="M120.56,120c-3.91,1.33-7.8,2.64-11.68,4-3.25,1.11-6.51,2.22-9.74,3.41-1.08.39-1.78.41-2.35-.8-1-2-2.07-3.91-3.12-5.86-.31-.59-.81-1.17.32-1.55,6-2,11.76-4.94,18.39-4.06a29.43,29.43,0,0,0,2.94.46C118.13,115.7,119.44,117.57,120.56,120Z"/><path class="cls-6" d="M76.53,135.08c-.15,0-.37,0-.44,0-1.35-1.5-1.38-3.48-1.93-5.27-.32-1.05.54-1.33,1.14-1.71a89.94,89.94,0,0,1,11.8-6.16c1.11-.49,1.79-.52,2.34.74.84,2,1.83,3.87,2.78,5.79.32.65.64,1.17-.43,1.53-5,1.63-9.88,3.33-14.81,5Z"/><path class="cls-7" d="M109.28,132.14a1.92,1.92,0,0,1-1.38,1.62c-.58.23-2-1-1.67.75.22,1.12.71,2.39,2.42,2.19s2.91.83,3.89,2.06a3.87,3.87,0,0,1-.56,5.66,2.29,2.29,0,0,0-.87,2c0,1.13-1.25,1.67-1.71,1.13-1.31-1.53-3.08-.78-4.53-1.33-.9-.35-2.24-.49-1.81-1.85a1.76,1.76,0,0,1,2.46-1.35c.66.24,1.83.52,1.86-.53s0-2.42-1.63-2.59c-.68-.08-1.39,0-2.07,0-1.76-.21-3.38-.81-3.88-2.7a4,4,0,0,1,1.83-4.57,2.19,2.19,0,0,0,1.26-2.38c-.07-.54,0-1.12.7-1.25a.92.92,0,0,1,1.14.54c.45,1.33,1.49,1.34,2.61,1.26S109.21,130.85,109.28,132.14Zm-5,4.91c.78,0,1-.46,1-1.16s-.25-1.58-1.26-1.48a1.18,1.18,0,0,0-1.07,1.45A1.23,1.23,0,0,0,104.24,137.05Zm4.77,5.46c.64-.27,1.31-.49,1.26-1.38a1.3,1.3,0,0,0-1.51-1.34c-.5,0-1.27-.08-1.08.73S108,142.16,109,142.51Z"/><path class="cls-6" d="M71.08,130.85c.16.74.28,1.25.38,1.77.84,4.3.83,4.27-3.52,5.36a1.72,1.72,0,0,1-2.15-.72,1.59,1.59,0,0,1,.13-2.24A15.72,15.72,0,0,1,71.08,130.85Z"/><path class="cls-6" d="M131.82,114.93c-2.57,1.88-10.1.5-13.95-2.41C120.88,112,128.43,113.32,131.82,114.93Z"/><path class="cls-6" d="M191.26,74.33a2.82,2.82,0,0,1-3.11-2.83,2.71,2.71,0,0,1,2.78-2.76,2.85,2.85,0,0,1,2.95,2.84A2.78,2.78,0,0,1,191.26,74.33Z"/><path class="cls-6" d="M263.59,105.05c0-2.13.06-4.27,0-6.41-.05-1.34.36-2,1.81-1.94,4,0,8,0,12,0a4.21,4.21,0,0,1,3.71,1.88c4.52,6.27,9.08,12.51,13.61,18.77.44.61,1.11,1.34.71,2s-1.41.35-2.1.22c-9-1.79-18-3.62-27.06-5.41a2.39,2.39,0,0,1-2.18-2.72c.05-2.14,0-4.28,0-6.42Z"/><path class="cls-3" d="M231.78,112.74c1.07,0,1.95.16,2,1.41,0,.8-.44.85-1,.63-.91-.32-2.43.31-2.49-1.3C230.21,112.49,231.24,112.83,231.78,112.74Z"/><path class="cls-6" d="M193.64,160.44a7.8,7.8,0,0,1-15.6.13,7.71,7.71,0,0,1,7.88-7.58A7.61,7.61,0,0,1,193.64,160.44Z"/><path class="cls-6" d="M289.24,152.94a7.71,7.71,0,0,1,7.72,7.52,7.83,7.83,0,0,1-7.8,7.72,8,8,0,0,1-7.78-7.57A7.82,7.82,0,0,1,289.24,152.94Z"/><path class="cls-6" d="M154,137.08a5.83,5.83,0,1,1-11.65-.12,5.67,5.67,0,0,1,5.6-5.77A5.94,5.94,0,0,1,154,137.08Z"/><path class="cls-6" d="M65.84,161.66a6,6,0,0,1,6-5.67,5.82,5.82,0,0,1,5.82,6,6,6,0,0,1-6,5.72A6.06,6.06,0,0,1,65.84,161.66Z"/><path class="cls-1" d="M104.23,137.05a1.22,1.22,0,0,1-1.35-1.19,1.18,1.18,0,0,1,1.07-1.45c1-.1,1.19.69,1.26,1.48S105,137.05,104.23,137.05Z"/><path class="cls-1" d="M109,142.51c-1-.35-1.15-1.24-1.33-2s.58-.73,1.08-.73a1.3,1.3,0,0,1,1.51,1.34C110.32,142,109.65,142.24,109,142.51Z"/><path class="cls-3" d="M545.15,129.43c-.46.71-.92,1.42-1.36,2.14l-8.95,14.83a3.15,3.15,0,0,1-5.62,0c-3.39-5.78-6.81-11.54-10.58-17.22v5c0,6.73-.12,13.46,0,20.18.05,2.07-.63,2.45-2.45,2.33a50.51,50.51,0,0,0-6.85,0c-1.81.13-2.34-.36-2.32-2.24.1-12,.05-24,.06-36,0-3.11,0-6.22,0-9.33,0-1.14.29-1.55,1.5-1.52,3,.08,6,.06,8.95,0a2.3,2.3,0,0,1,2.36,1.4c3.85,6.77,7.79,13.49,11.75,20.3a5.13,5.13,0,0,0,1.63-2.13c3.64-6.32,7.76-12.37,11.12-18.85a1.12,1.12,0,0,1,1.19-.66c3.43,0,6.86,0,10.28,0,1.37,0,1.15.87,1.15,1.66q0,12.85,0,25.71c0,6.67,0,13.33,0,20,0,1.29-.29,1.79-1.67,1.73-2.67-.11-5.34-.12-8,0-1.48.06-1.94-.37-1.93-1.9.07-7.93,0-15.87,0-23.8v-1.45Z"/><path class="cls-1" d="M626.46,157.7c-14.15.38-25.16-9.32-26.62-22.92-1.43-13.23,7.65-25.65,20.81-27.8,10.17-1.67,18.77,1.54,25.27,9.78.84,1,1,1.66-.44,2.41-2.64,1.42-5.18,3-7.74,4.63-.68.42-1,.32-1.54-.3-3.1-3.88-7-5.28-12.09-5.12-9.38.27-15,10.74-11.87,18.88,3.18,8.3,11.53,10.54,18.45,8a12.16,12.16,0,0,0,5.08-3.76c.84-1,1.38-.92,2.3-.37,2.49,1.47,5,3,7.54,4.3,1.16.62,1.15,1.13.41,2.1A25.07,25.07,0,0,1,626.46,157.7Z"/><path class="cls-1" d="M338,133.53c.18-11.94,6.21-21.5,15.38-25,10.42-4,20-2.22,28.22,5.4,4.14,3.82,4,3.93-.61,6.83-.53.33-1,.8-1.52,1.11a18.78,18.78,0,0,1-3.84,2c-1.79.53-1.74-1.69-2.85-2.34-2.43-1.44-4.75-3.14-7.67-3.31a16.57,16.57,0,0,0-10.78,3c-3.9,2.74-5.83,11.35-3.92,15.74,1.42,3.28,3.2,6.06,6.51,7.68,6,2.92,13.45,1.74,17.18-3.29.62-.82,1.07-1,2-.4,2.57,1.57,5.17,3.09,7.81,4.52,1.14.61,1,1.09.35,2-5.22,7-12.34,10.07-20.89,10.14A24.25,24.25,0,0,1,345.2,150,24,24,0,0,1,338,133.53Z"/><path class="cls-1" d="M785.49,107.62c4.08,0,7.82,0,11.56,0a2.44,2.44,0,0,1,2.52,1.51c2.27,4.31,4.64,8.57,7.15,13.18,1.84-3.33,3.87-6.25,5.14-9.47,1.69-4.26,4.29-6,8.88-5.27a44.38,44.38,0,0,0,7,.06c.18.89-.45,1.37-.78,1.93-4.07,6.94-8.14,13.9-12.34,20.77a2.83,2.83,0,0,0,.12,3.4q6.59,11,13.1,22.1c.09.16.16.33.4.85h-6.1c-2.22,0-4.86.7-6.54-.26s-2.38-3.59-3.47-5.5c-1.74-3-3.44-6.07-5.16-9.1,0-.1-.16-.16-.35-.34-2.41,4.27-4.86,8.49-7.16,12.78-.91,1.71-1.92,2.61-4,2.46-3.33-.22-6.7,0-10.34,0,1.14-2,2.17-3.75,3.22-5.52,3.52-5.94,7-11.9,10.6-17.81a2.57,2.57,0,0,0,0-3c-4.31-7.17-8.56-14.37-12.83-21.57C785.94,108.45,785.8,108.18,785.49,107.62Z"/><path class="cls-1" d="M476.31,125.13a13.68,13.68,0,0,1,14.23-3.77,11.64,11.64,0,0,1,8.91,10.06c.6,3.71.24,7.47.28,11.21,0,4.19-.05,8.38,0,12.56,0,1.17-.3,1.55-1.48,1.51-2.73-.09-5.46-.1-8.19,0-1.2,0-1.49-.36-1.48-1.51.06-5.9.05-11.8,0-17.7,0-4.51-1.87-6.67-5.69-6.7s-6.57,2.67-6.61,6.8q-.09,8.74,0,17.51c0,1.29-.37,1.61-1.6,1.58-2.72-.07-5.45,0-8.18,0-1,0-1.47-.15-1.47-1.32q.06-23.22,0-46.45c0-1,.3-1.31,1.29-1.29,2.79.05,5.59.07,8.38,0,1.28,0,1.59.38,1.57,1.62C476.27,114.42,476.31,119.6,476.31,125.13Z"/><path class="cls-1" d="M415.71,153.21a13.31,13.31,0,0,1-11.34,4.49c-7.55-.7-13.5-6.59-15.14-14.22-1.84-8.51,1.85-17.13,8.9-20.85,5.94-3.13,12.24-2.27,17.35,2.37.09-.06.25-.12.25-.19.22-3,.22-3,3.41-3,2.09,0,4.18.07,6.27,0,1.26,0,1.64.42,1.63,1.64q0,16,0,32c0,1.19-.48,1.34-1.47,1.32-2.66-.05-5.33-.1-8,0-1.37.05-2-.25-1.81-1.74A10.17,10.17,0,0,0,415.71,153.21Zm-7.8-6a8.11,8.11,0,0,0-.09-16.22,7.89,7.89,0,0,0-7.87,8.08A7.81,7.81,0,0,0,407.91,147.26Z"/><path class="cls-1" d="M676.32,124.29a.48.48,0,0,0,.08-.18c0-2.46,1.82-2.3,3.48-2.32,2.22,0,4.44,0,6.66-.06,1,0,1.47.16,1.47,1.33q-.06,16.19,0,32.37c0,1.07-.42,1.26-1.35,1.24-2.6,0-5.21-.09-7.81,0-1.52.07-2.5-.14-2.14-2,.06-.33.18-.8-.25-1s-.67.22-.94.45a14.42,14.42,0,0,1-17.32.93c-6-3.83-8.68-9.54-8.44-16.46s3.06-12.66,9.49-16c5.6-3,11.81-2.17,16.82,2,.19.12.38.24.54,0A2.38,2.38,0,0,0,676.32,124.29Zm.49,14.85c0-4.76-3.29-8.12-7.9-8.11a8.12,8.12,0,0,0-8.11,8.28,7.85,7.85,0,0,0,8.14,8C673.6,147.26,676.83,143.92,676.81,139.14Z"/><path class="cls-3" d="M579.77,143.45c1.77-5.82,3.42-11.14,5-16.49s1.5-5.21,7-5.18c1.71,0,3.43,0,5.14,0,1,0,1.4.07,1,1.24-3.79,10.21-7.52,20.46-11.3,30.68A47.21,47.21,0,0,1,583,162c-3.71,6.07-9.53,7.75-16.16,7.77-.78,0-1-.38-1-1.06,0-2.47,0-4.95,0-7.42,0-.88.43-1.08,1.18-1.07a10.43,10.43,0,0,0,3.18-.52c3.2-1,4.25-3.11,3-6.18q-6.15-14.85-12.33-29.69c-.81-2-.77-2,1.39-2,2.67,0,5.34.06,8,0a2,2,0,0,1,2.31,1.57c2,5.82,4.09,11.6,6.15,17.39C579,141.45,579.3,142.2,579.77,143.45Z"/><path class="cls-1" d="M759.1,137.47c0-5.65-.06-11.3,0-17,0-1.42-.43-1.66-1.7-1.62-3,.08-6,0-9,0-1.12,0-1.58-.23-1.54-1.46.09-2.85.06-5.71,0-8.57,0-1,.23-1.32,1.26-1.32q16.86.06,33.72,0c1,0,1.16.39,1.15,1.24,0,2.92-.05,5.84,0,8.76,0,1.18-.47,1.33-1.46,1.32-2.92,0-5.86.16-8.76-.06-2.06-.15-2.32.64-2.31,2.42.08,11,0,22,.12,33,0,2.06-.6,2.56-2.53,2.44-2.53-.15-5.08-.09-7.61,0-1.18,0-1.52-.33-1.51-1.5.06-5.9,0-11.81,0-17.71Z"/><path class="cls-1" d="M446.39,157.54c-3.75-.14-7.27-.54-10.4-2.5a14.85,14.85,0,0,1-2.38-1.87c-3.14-3.07-3-3.83.83-5.81,1.52-.79,3.06-1.55,4.55-2.39.91-.51,1.43-.62,2,.53,1.25,2.34,4.76,3.43,7.3,2.48.76-.28,1.41-.72,1.48-1.56a1.65,1.65,0,0,0-1.32-1.67c-1.92-.62-3.88-1.16-5.82-1.73a48.61,48.61,0,0,1-4.81-1.77c-7.34-3.08-6.48-13.16-2.26-16.86,6.2-5.44,18.3-4.49,23.41,2,1.45,1.83,1.43,1.92-.55,3s-4.26,2.24-6.34,3.45c-.92.53-1.33.43-1.89-.53a4.54,4.54,0,0,0-5.29-1.91c-.71.22-1.3.57-1.41,1.36a1.53,1.53,0,0,0,1.14,1.76c1.55.52,3.13,1,4.71,1.45a44.69,44.69,0,0,1,6.06,2.19c7.32,3.24,7.16,13.89.94,17.7A19.37,19.37,0,0,1,446.39,157.54Z"/><path class="cls-1" d="M731.83,120.8c5.15.12,9.68,1.62,13.06,5.81,1,1.2,1.07,1.91-.54,2.62a58.53,58.53,0,0,0-6.37,3.35c-1,.56-1.32.5-1.91-.41-1.17-1.83-3-2.13-5-1.85a1.82,1.82,0,0,0-1.78,1.46,1.68,1.68,0,0,0,1.32,1.85c1.43.52,2.89.93,4.36,1.32a48.66,48.66,0,0,1,6.09,2.1c7.29,3.08,7.12,13.55,1.53,17.51s-16.5,3.92-21.94-.39a10.39,10.39,0,0,1-1-.87c-3.25-3.2-3.14-3.92.82-6,1.52-.78,3-1.56,4.54-2.38.75-.4,1.21-.54,1.79.42a6.05,6.05,0,0,0,7.26,2.56c.83-.27,1.58-.71,1.58-1.66s-.71-1.34-1.45-1.58c-1.75-.57-3.52-1-5.27-1.62a51.19,51.19,0,0,1-4.82-1.73c-3.53-1.58-5.66-4.26-5.83-8.2-.19-4.12,1.08-7.63,4.73-10A15.12,15.12,0,0,1,731.83,120.8Z"/><path class="cls-1" d="M704.81,127.32c2.24-3.81,5.11-5.72,9-6.14,1.1-.12,1.41.24,1.4,1.32,0,3.11,0,6.22.05,9.32,0,1-.24,1.34-1.26,1.32a12.23,12.23,0,0,0-2.82.35c-4.06.84-6.27,3.49-6.31,7.62-.05,4.63-.07,9.26,0,13.89,0,1.34-.33,1.75-1.68,1.69-2.72-.11-5.45-.08-8.18,0-1,0-1.29-.33-1.29-1.31q0-16.08,0-32.17c0-1,.21-1.45,1.35-1.43,2.79.07,5.59,0,8.38,0,1.1,0,1.46.35,1.38,1.42S704.81,125.54,704.81,127.32Z"/><path class="cls-3" d="M368.06,181.19c-7.74,0-15.48,0-23.22,0-.61,0-1.71.55-1.71-.78s1.06-.83,1.7-.83q23.31,0,46.62,0c.66,0,1.72-.4,1.64.9s-1,.68-1.63.69c-7.8,0-15.6,0-23.4,0Z"/><path class="cls-3" d="M803.15,179.54h22.26c.44,0,.88,0,1.33,0s1,.09,1,.81-.46.79-1,.79l-4.75,0H780.3c-.44,0-.89,0-1.33,0-.59,0-.78-.26-.78-.8s.25-.81.81-.79c.38,0,.76,0,1.14,0h23Z"/><path class="cls-8" d="M407.91,147.26a7.81,7.81,0,0,1-8-8.14,7.89,7.89,0,0,1,7.87-8.08,8.11,8.11,0,0,1,.09,16.22Z"/><path class="cls-8" d="M676.81,139.14c0,4.78-3.21,8.12-7.87,8.14a7.85,7.85,0,0,1-8.14-8,8.12,8.12,0,0,1,8.11-8.28C673.52,131,676.8,134.38,676.81,139.14Z"/><path class="cls-8" d="M676.32,124.29a2.38,2.38,0,0,1,.3.27c-.16.26-.35.14-.54,0A1.68,1.68,0,0,1,676.32,124.29Z"/><text class="cls-9" transform="translate(403.95 184.96)">FREE TOWING, INSTANT OFFER</text></g></g></svg>